<svg width="16" height="15" viewBox="0 0 16 15" fill="none" xmlns="http://www.w3.org/2000/svg">
<path d="M15.5645 11.0085L13.3317 8.91519C12.5342 8.16759 11.1786 8.46666 10.8596 9.43852C10.6203 10.1114 9.8229 10.4852 9.1052 10.3356C7.51031 9.96184 5.3572 8.01807 4.95848 6.4481C4.71925 5.77522 5.19772 5.02762 5.91542 4.80336C6.9521 4.50432 7.27107 3.23339 6.47363 2.48579L4.24078 0.392493C3.60282 -0.130831 2.64589 -0.130831 2.08768 0.392493L0.57253 1.81294C-0.942617 3.30815 0.732019 7.27046 4.48001 10.7842C8.22801 14.298 12.4545 15.9427 14.0494 14.4475L15.5645 13.027C16.1228 12.4289 16.1228 11.5318 15.5645 11.0085Z" fill="#808080"/>
</svg>
